<mxfile host="app.diagrams.net" modified="2022-10-10T06:47:13.971Z" agent="5.0 (Windows NT 10.0; Win64; x64) AppleWebKit/537.36 (KHTML, like Gecko) Chrome/106.0.0.0 Safari/537.36" etag="mG45OtOME-aClqt9ESrT" version="20.4.0" type="github">
  <diagram id="RBxNGfNoUyg8NmXb8gKQ" name="Страница 2">
    <mxGraphModel dx="1422" dy="793" grid="1" gridSize="10" guides="1" tooltips="1" connect="1" arrows="1" fold="1" page="1" pageScale="1" pageWidth="827" pageHeight="1169" math="0" shadow="0">
      <root>
        <object label="" id="0">
          <mxCell />
        </object>
        <mxCell id="1" parent="0" />
        <mxCell id="5wCDZV2-zJ8sQ3Wg2F0M-1" value="&lt;b&gt;Портал Инфраструктуры&lt;br&gt;&lt;/b&gt;" style="html=1;dropTarget=0;labelPosition=center;verticalLabelPosition=middle;align=center;verticalAlign=top;" parent="1" vertex="1">
          <mxGeometry x="260" y="150" width="180" height="960" as="geometry" />
        </mxCell>
        <mxCell id="5wCDZV2-zJ8sQ3Wg2F0M-2" value="" style="shape=module;jettyWidth=8;jettyHeight=4;" parent="5wCDZV2-zJ8sQ3Wg2F0M-1" vertex="1">
          <mxGeometry x="1" width="20" height="20" relative="1" as="geometry">
            <mxPoint x="-27" y="7" as="offset" />
          </mxGeometry>
        </mxCell>
        <mxCell id="5wCDZV2-zJ8sQ3Wg2F0M-4" value="&lt;b&gt;MFSM&lt;/b&gt;&lt;br&gt;" style="html=1;dropTarget=0;labelPosition=center;verticalLabelPosition=middle;align=center;verticalAlign=top;" parent="1" vertex="1">
          <mxGeometry x="620" y="190" width="180" height="100" as="geometry" />
        </mxCell>
        <mxCell id="5wCDZV2-zJ8sQ3Wg2F0M-5" value="" style="shape=module;jettyWidth=8;jettyHeight=4;" parent="5wCDZV2-zJ8sQ3Wg2F0M-4" vertex="1">
          <mxGeometry x="1" width="20" height="20" relative="1" as="geometry">
            <mxPoint x="-27" y="7" as="offset" />
          </mxGeometry>
        </mxCell>
        <mxCell id="5wCDZV2-zJ8sQ3Wg2F0M-8" value="CMDB" style="shape=module;align=left;spacingLeft=20;align=center;verticalAlign=top;" parent="1" vertex="1">
          <mxGeometry x="650" y="215" width="100" height="50" as="geometry" />
        </mxCell>
        <mxCell id="5wCDZV2-zJ8sQ3Wg2F0M-9" value="" style="rounded=0;orthogonalLoop=1;jettySize=auto;html=1;endArrow=none;endFill=0;sketch=0;sourcePerimeterSpacing=0;targetPerimeterSpacing=0;exitX=1.001;exitY=0.099;exitDx=0;exitDy=0;exitPerimeter=0;" parent="1" source="5wCDZV2-zJ8sQ3Wg2F0M-1" target="5wCDZV2-zJ8sQ3Wg2F0M-11" edge="1">
          <mxGeometry relative="1" as="geometry">
            <mxPoint x="530" y="265" as="sourcePoint" />
          </mxGeometry>
        </mxCell>
        <mxCell id="5wCDZV2-zJ8sQ3Wg2F0M-10" value="" style="rounded=0;orthogonalLoop=1;jettySize=auto;html=1;endArrow=halfCircle;endFill=0;endSize=6;strokeWidth=1;sketch=0;exitX=0;exitY=0.5;exitDx=0;exitDy=0;" parent="1" source="5wCDZV2-zJ8sQ3Wg2F0M-4" target="5wCDZV2-zJ8sQ3Wg2F0M-11" edge="1">
          <mxGeometry relative="1" as="geometry">
            <mxPoint x="570" y="265" as="sourcePoint" />
            <mxPoint x="560" y="205" as="targetPoint" />
          </mxGeometry>
        </mxCell>
        <mxCell id="5wCDZV2-zJ8sQ3Wg2F0M-11" value="" style="ellipse;whiteSpace=wrap;html=1;align=center;aspect=fixed;resizable=0;points=[];outlineConnect=0;sketch=0;" parent="1" vertex="1">
          <mxGeometry x="525" y="240" width="10" height="10" as="geometry" />
        </mxCell>
        <mxCell id="5wCDZV2-zJ8sQ3Wg2F0M-15" value="Личный &#xa;кабинет" style="shape=module;align=left;spacingLeft=20;align=center;verticalAlign=top;" parent="1" vertex="1">
          <mxGeometry x="300" y="200" width="100" height="50" as="geometry" />
        </mxCell>
        <mxCell id="5wCDZV2-zJ8sQ3Wg2F0M-16" value="Заявка на расчет стоимости&lt;br&gt;Заявка на выделение IT-мощности&lt;br&gt;Карточка КЕ" style="shape=note;whiteSpace=wrap;html=1;backgroundOutline=1;darkOpacity=0.05;" parent="1" vertex="1">
          <mxGeometry x="450" y="50" width="160" height="130" as="geometry" />
        </mxCell>
        <mxCell id="5wCDZV2-zJ8sQ3Wg2F0M-17" value="" style="endArrow=none;dashed=1;html=1;dashPattern=1 3;strokeWidth=2;rounded=0;entryX=0.5;entryY=1;entryDx=0;entryDy=0;entryPerimeter=0;" parent="1" source="5wCDZV2-zJ8sQ3Wg2F0M-11" target="5wCDZV2-zJ8sQ3Wg2F0M-16" edge="1">
          <mxGeometry width="50" height="50" relative="1" as="geometry">
            <mxPoint x="530" y="200" as="sourcePoint" />
            <mxPoint x="580" y="210" as="targetPoint" />
          </mxGeometry>
        </mxCell>
        <mxCell id="5wCDZV2-zJ8sQ3Wg2F0M-20" value="&lt;br&gt;&lt;b&gt;АСУМ&lt;/b&gt;" style="html=1;dropTarget=0;verticalAlign=top;" parent="1" vertex="1">
          <mxGeometry x="620" y="390" width="180" height="90" as="geometry" />
        </mxCell>
        <mxCell id="5wCDZV2-zJ8sQ3Wg2F0M-21" value="" style="shape=module;jettyWidth=8;jettyHeight=4;" parent="5wCDZV2-zJ8sQ3Wg2F0M-20" vertex="1">
          <mxGeometry x="1" width="20" height="20" relative="1" as="geometry">
            <mxPoint x="-27" y="7" as="offset" />
          </mxGeometry>
        </mxCell>
        <mxCell id="5wCDZV2-zJ8sQ3Wg2F0M-28" value="" style="rounded=0;orthogonalLoop=1;jettySize=auto;html=1;endArrow=none;endFill=0;sketch=0;sourcePerimeterSpacing=0;targetPerimeterSpacing=0;exitX=1.002;exitY=0.293;exitDx=0;exitDy=0;exitPerimeter=0;" parent="1" source="5wCDZV2-zJ8sQ3Wg2F0M-1" target="5wCDZV2-zJ8sQ3Wg2F0M-30" edge="1">
          <mxGeometry relative="1" as="geometry">
            <mxPoint x="460" y="310" as="sourcePoint" />
          </mxGeometry>
        </mxCell>
        <mxCell id="5wCDZV2-zJ8sQ3Wg2F0M-29" value="" style="rounded=0;orthogonalLoop=1;jettySize=auto;html=1;endArrow=halfCircle;endFill=0;entryX=0.5;entryY=0.5;endSize=6;strokeWidth=1;sketch=0;exitX=0;exitY=0.5;exitDx=0;exitDy=0;" parent="1" source="5wCDZV2-zJ8sQ3Wg2F0M-20" target="5wCDZV2-zJ8sQ3Wg2F0M-30" edge="1">
          <mxGeometry relative="1" as="geometry">
            <mxPoint x="590" y="315" as="sourcePoint" />
          </mxGeometry>
        </mxCell>
        <mxCell id="5wCDZV2-zJ8sQ3Wg2F0M-30" value="" style="ellipse;whiteSpace=wrap;html=1;align=center;aspect=fixed;resizable=0;points=[];outlineConnect=0;sketch=0;" parent="1" vertex="1">
          <mxGeometry x="525" y="430" width="10" height="10" as="geometry" />
        </mxCell>
        <mxCell id="5wCDZV2-zJ8sQ3Wg2F0M-31" value="Органический&lt;br&gt;рост&lt;br&gt;Драйверы ув.&lt;br&gt;мощности" style="shape=note;whiteSpace=wrap;html=1;backgroundOutline=1;darkOpacity=0.05;" parent="1" vertex="1">
          <mxGeometry x="470" y="290" width="120" height="100" as="geometry" />
        </mxCell>
        <mxCell id="5wCDZV2-zJ8sQ3Wg2F0M-32" value="" style="endArrow=none;dashed=1;html=1;rounded=0;exitX=0.5;exitY=1;exitDx=0;exitDy=0;exitPerimeter=0;" parent="1" source="5wCDZV2-zJ8sQ3Wg2F0M-31" target="5wCDZV2-zJ8sQ3Wg2F0M-30" edge="1">
          <mxGeometry width="50" height="50" relative="1" as="geometry">
            <mxPoint x="550" y="340" as="sourcePoint" />
            <mxPoint x="600" y="290" as="targetPoint" />
          </mxGeometry>
        </mxCell>
        <mxCell id="5wCDZV2-zJ8sQ3Wg2F0M-33" value="&lt;br&gt;&lt;b&gt;АСУД&lt;/b&gt;" style="html=1;dropTarget=0;" parent="1" vertex="1">
          <mxGeometry x="620" y="590" width="180" height="90" as="geometry" />
        </mxCell>
        <mxCell id="5wCDZV2-zJ8sQ3Wg2F0M-34" value="" style="shape=module;jettyWidth=8;jettyHeight=4;" parent="5wCDZV2-zJ8sQ3Wg2F0M-33" vertex="1">
          <mxGeometry x="1" width="20" height="20" relative="1" as="geometry">
            <mxPoint x="-27" y="7" as="offset" />
          </mxGeometry>
        </mxCell>
        <mxCell id="5wCDZV2-zJ8sQ3Wg2F0M-40" value="" style="rounded=0;orthogonalLoop=1;jettySize=auto;html=1;endArrow=none;endFill=0;sketch=0;sourcePerimeterSpacing=0;targetPerimeterSpacing=0;exitX=1;exitY=0.5;exitDx=0;exitDy=0;" parent="1" source="5wCDZV2-zJ8sQ3Wg2F0M-1" target="5wCDZV2-zJ8sQ3Wg2F0M-42" edge="1">
          <mxGeometry relative="1" as="geometry">
            <mxPoint x="430" y="555" as="sourcePoint" />
          </mxGeometry>
        </mxCell>
        <mxCell id="5wCDZV2-zJ8sQ3Wg2F0M-41" value="" style="rounded=0;orthogonalLoop=1;jettySize=auto;html=1;endArrow=halfCircle;endFill=0;endSize=6;strokeWidth=1;sketch=0;exitX=0;exitY=0.5;exitDx=0;exitDy=0;" parent="1" source="5wCDZV2-zJ8sQ3Wg2F0M-33" target="5wCDZV2-zJ8sQ3Wg2F0M-42" edge="1">
          <mxGeometry relative="1" as="geometry">
            <mxPoint x="570" y="540" as="sourcePoint" />
            <mxPoint x="540" y="555" as="targetPoint" />
          </mxGeometry>
        </mxCell>
        <mxCell id="5wCDZV2-zJ8sQ3Wg2F0M-42" value="" style="ellipse;whiteSpace=wrap;html=1;align=center;aspect=fixed;resizable=0;points=[];outlineConnect=0;sketch=0;" parent="1" vertex="1">
          <mxGeometry x="525" y="630" width="10" height="10" as="geometry" />
        </mxCell>
        <mxCell id="5wCDZV2-zJ8sQ3Wg2F0M-43" value="Перечень ИС&lt;br&gt;Шаблон роли" style="shape=note;whiteSpace=wrap;html=1;backgroundOutline=1;darkOpacity=0.05;" parent="1" vertex="1">
          <mxGeometry x="490" y="490" width="80" height="100" as="geometry" />
        </mxCell>
        <mxCell id="5wCDZV2-zJ8sQ3Wg2F0M-47" value="" style="endArrow=none;dashed=1;html=1;rounded=0;entryX=0.5;entryY=1;entryDx=0;entryDy=0;entryPerimeter=0;" parent="1" source="5wCDZV2-zJ8sQ3Wg2F0M-42" target="5wCDZV2-zJ8sQ3Wg2F0M-43" edge="1">
          <mxGeometry width="50" height="50" relative="1" as="geometry">
            <mxPoint x="530" y="550" as="sourcePoint" />
            <mxPoint x="480" y="530" as="targetPoint" />
          </mxGeometry>
        </mxCell>
        <mxCell id="5wCDZV2-zJ8sQ3Wg2F0M-48" value="&lt;br&gt;&lt;b&gt;Финпортал&lt;/b&gt;" style="html=1;dropTarget=0;verticalAlign=top;" parent="1" vertex="1">
          <mxGeometry x="620" y="790" width="180" height="90" as="geometry" />
        </mxCell>
        <mxCell id="5wCDZV2-zJ8sQ3Wg2F0M-49" value="" style="shape=module;jettyWidth=8;jettyHeight=4;" parent="5wCDZV2-zJ8sQ3Wg2F0M-48" vertex="1">
          <mxGeometry x="1" width="20" height="20" relative="1" as="geometry">
            <mxPoint x="-27" y="7" as="offset" />
          </mxGeometry>
        </mxCell>
        <mxCell id="5wCDZV2-zJ8sQ3Wg2F0M-50" value="" style="rounded=0;orthogonalLoop=1;jettySize=auto;html=1;endArrow=none;endFill=0;sketch=0;sourcePerimeterSpacing=0;targetPerimeterSpacing=0;exitX=1.008;exitY=0.709;exitDx=0;exitDy=0;exitPerimeter=0;" parent="1" source="5wCDZV2-zJ8sQ3Wg2F0M-1" target="5wCDZV2-zJ8sQ3Wg2F0M-52" edge="1">
          <mxGeometry relative="1" as="geometry">
            <mxPoint x="430" y="545" as="sourcePoint" />
          </mxGeometry>
        </mxCell>
        <mxCell id="5wCDZV2-zJ8sQ3Wg2F0M-51" value="" style="rounded=0;orthogonalLoop=1;jettySize=auto;html=1;endArrow=halfCircle;endFill=0;endSize=6;strokeWidth=1;sketch=0;exitX=0;exitY=0.5;exitDx=0;exitDy=0;" parent="1" source="5wCDZV2-zJ8sQ3Wg2F0M-48" target="5wCDZV2-zJ8sQ3Wg2F0M-52" edge="1">
          <mxGeometry relative="1" as="geometry">
            <mxPoint x="470" y="545" as="sourcePoint" />
            <mxPoint x="530" y="680" as="targetPoint" />
          </mxGeometry>
        </mxCell>
        <mxCell id="5wCDZV2-zJ8sQ3Wg2F0M-52" value="" style="ellipse;whiteSpace=wrap;html=1;align=center;aspect=fixed;resizable=0;points=[];outlineConnect=0;sketch=0;" parent="1" vertex="1">
          <mxGeometry x="525" y="830" width="10" height="10" as="geometry" />
        </mxCell>
        <mxCell id="5wCDZV2-zJ8sQ3Wg2F0M-53" value="План./Факт.&lt;br&gt;стоимость ИТ-мощностей" style="shape=note;whiteSpace=wrap;html=1;backgroundOutline=1;darkOpacity=0.05;" parent="1" vertex="1">
          <mxGeometry x="490" y="690" width="80" height="100" as="geometry" />
        </mxCell>
        <mxCell id="5wCDZV2-zJ8sQ3Wg2F0M-54" value="" style="endArrow=none;dashed=1;html=1;rounded=0;entryX=0.5;entryY=1;entryDx=0;entryDy=0;entryPerimeter=0;" parent="1" source="5wCDZV2-zJ8sQ3Wg2F0M-52" target="5wCDZV2-zJ8sQ3Wg2F0M-53" edge="1">
          <mxGeometry width="50" height="50" relative="1" as="geometry">
            <mxPoint x="430" y="570" as="sourcePoint" />
            <mxPoint x="480" y="520" as="targetPoint" />
          </mxGeometry>
        </mxCell>
        <mxCell id="5wCDZV2-zJ8sQ3Wg2F0M-55" value="&lt;br&gt;&lt;b&gt;MatriX5&lt;/b&gt;" style="html=1;dropTarget=0;" parent="1" vertex="1">
          <mxGeometry x="620" y="990" width="180" height="90" as="geometry" />
        </mxCell>
        <mxCell id="5wCDZV2-zJ8sQ3Wg2F0M-56" value="" style="shape=module;jettyWidth=8;jettyHeight=4;" parent="5wCDZV2-zJ8sQ3Wg2F0M-55" vertex="1">
          <mxGeometry x="1" width="20" height="20" relative="1" as="geometry">
            <mxPoint x="-27" y="7" as="offset" />
          </mxGeometry>
        </mxCell>
        <mxCell id="5wCDZV2-zJ8sQ3Wg2F0M-57" value="" style="rounded=0;orthogonalLoop=1;jettySize=auto;html=1;endArrow=none;endFill=0;sketch=0;sourcePerimeterSpacing=0;targetPerimeterSpacing=0;exitX=1.014;exitY=0.924;exitDx=0;exitDy=0;exitPerimeter=0;" parent="1" source="5wCDZV2-zJ8sQ3Wg2F0M-1" target="5wCDZV2-zJ8sQ3Wg2F0M-59" edge="1">
          <mxGeometry relative="1" as="geometry">
            <mxPoint x="430" y="785" as="sourcePoint" />
          </mxGeometry>
        </mxCell>
        <mxCell id="5wCDZV2-zJ8sQ3Wg2F0M-58" value="" style="rounded=0;orthogonalLoop=1;jettySize=auto;html=1;endArrow=halfCircle;endFill=0;endSize=6;strokeWidth=1;sketch=0;exitX=0;exitY=0.5;exitDx=0;exitDy=0;" parent="1" source="5wCDZV2-zJ8sQ3Wg2F0M-55" target="5wCDZV2-zJ8sQ3Wg2F0M-59" edge="1">
          <mxGeometry relative="1" as="geometry">
            <mxPoint x="470" y="785" as="sourcePoint" />
            <mxPoint x="540" y="875" as="targetPoint" />
          </mxGeometry>
        </mxCell>
        <mxCell id="5wCDZV2-zJ8sQ3Wg2F0M-59" value="" style="ellipse;whiteSpace=wrap;html=1;align=center;aspect=fixed;resizable=0;points=[];outlineConnect=0;sketch=0;" parent="1" vertex="1">
          <mxGeometry x="525" y="1030" width="10" height="10" as="geometry" />
        </mxCell>
        <mxCell id="5wCDZV2-zJ8sQ3Wg2F0M-61" value="Архитектурные артефакты" style="shape=note;whiteSpace=wrap;html=1;backgroundOutline=1;darkOpacity=0.05;" parent="1" vertex="1">
          <mxGeometry x="490" y="890" width="80" height="100" as="geometry" />
        </mxCell>
        <mxCell id="5wCDZV2-zJ8sQ3Wg2F0M-62" value="" style="endArrow=none;dashed=1;html=1;rounded=0;entryX=0.5;entryY=1;entryDx=0;entryDy=0;entryPerimeter=0;" parent="1" source="5wCDZV2-zJ8sQ3Wg2F0M-59" target="5wCDZV2-zJ8sQ3Wg2F0M-61" edge="1">
          <mxGeometry width="50" height="50" relative="1" as="geometry">
            <mxPoint x="450" y="730" as="sourcePoint" />
            <mxPoint x="500" y="680" as="targetPoint" />
          </mxGeometry>
        </mxCell>
        <mxCell id="Gnq0liwkqBF5pYWj6BzH-1" value="Диаграмма систем" style="text;html=1;resizable=0;autosize=1;align=center;verticalAlign=middle;points=[];fillColor=none;strokeColor=none;rounded=0;" parent="1" vertex="1">
          <mxGeometry x="465" width="130" height="30" as="geometry" />
        </mxCell>
        <mxCell id="JGjenGz9moSJ3cuwdnmN-1" value="Портал &#xa;автоматизации" style="shape=module;align=left;spacingLeft=20;align=center;verticalAlign=top;" vertex="1" parent="1">
          <mxGeometry x="300" y="270" width="100" height="50" as="geometry" />
        </mxCell>
        <mxCell id="JGjenGz9moSJ3cuwdnmN-2" value="ADFS" style="shape=module;align=left;spacingLeft=20;align=center;verticalAlign=top;" vertex="1" parent="1">
          <mxGeometry x="20" y="199" width="100" height="50" as="geometry" />
        </mxCell>
        <mxCell id="JGjenGz9moSJ3cuwdnmN-3" value="" style="rounded=0;orthogonalLoop=1;jettySize=auto;html=1;endArrow=none;endFill=0;sketch=0;sourcePerimeterSpacing=0;targetPerimeterSpacing=0;exitX=1;exitY=0.5;exitDx=0;exitDy=0;" edge="1" target="JGjenGz9moSJ3cuwdnmN-5" parent="1" source="JGjenGz9moSJ3cuwdnmN-2">
          <mxGeometry relative="1" as="geometry">
            <mxPoint x="230" y="445" as="sourcePoint" />
          </mxGeometry>
        </mxCell>
        <mxCell id="JGjenGz9moSJ3cuwdnmN-4" value="" style="rounded=0;orthogonalLoop=1;jettySize=auto;html=1;endArrow=halfCircle;endFill=0;entryX=0.5;entryY=0.5;endSize=6;strokeWidth=1;sketch=0;exitX=-0.011;exitY=0.086;exitDx=0;exitDy=0;exitPerimeter=0;" edge="1" target="JGjenGz9moSJ3cuwdnmN-5" parent="1" source="5wCDZV2-zJ8sQ3Wg2F0M-1">
          <mxGeometry relative="1" as="geometry">
            <mxPoint x="270" y="445" as="sourcePoint" />
          </mxGeometry>
        </mxCell>
        <mxCell id="JGjenGz9moSJ3cuwdnmN-5" value="" style="ellipse;whiteSpace=wrap;html=1;align=center;aspect=fixed;resizable=0;points=[];outlineConnect=0;sketch=0;" vertex="1" parent="1">
          <mxGeometry x="180" y="220" width="10" height="10" as="geometry" />
        </mxCell>
        <mxCell id="JGjenGz9moSJ3cuwdnmN-6" value="Данные пользователя" style="shape=note;whiteSpace=wrap;html=1;backgroundOutline=1;darkOpacity=0.05;" vertex="1" parent="1">
          <mxGeometry x="125" y="80" width="120" height="100" as="geometry" />
        </mxCell>
        <mxCell id="JGjenGz9moSJ3cuwdnmN-7" value="" style="endArrow=none;dashed=1;html=1;rounded=0;exitX=0.5;exitY=1;exitDx=0;exitDy=0;exitPerimeter=0;" edge="1" parent="1" source="JGjenGz9moSJ3cuwdnmN-6" target="JGjenGz9moSJ3cuwdnmN-5">
          <mxGeometry width="50" height="50" relative="1" as="geometry">
            <mxPoint x="215" y="125" as="sourcePoint" />
            <mxPoint x="150" y="210" as="targetPoint" />
          </mxGeometry>
        </mxCell>
      </root>
    </mxGraphModel>
  </diagram>
</mxfile>
